<svg xmlns="http://www.w3.org/2000/svg" id="Layer_1" viewBox="0 0 150.9 150.9"><style>.st0{fill:#FFFFFF;} .st1{fill:#006AB6;}</style><path d="M150.9 75.5c0 41.7-33.8 75.5-75.5 75.5C33.8 150.9 0 117.2 0 75.5S33.8 0 75.5 0s75.4 33.8 75.4 75.5" class="st0"/><path d="M96.2 110.3c-.4.4-.7.9-.7 1.6 0 .4.1.9.4 1.2.2.3.5.5.9.7-.6.2-.9.5-.9.9s.2.6.6.8c-.9.2-1.4.7-1.4 1.4 0 .5.2.9.7 1.2.5.3 1.1.4 1.9.4.8 0 1.5-.2 1.9-.5.5-.3.7-.8.7-1.3s-.2-.9-.5-1.1c-.3-.3-.9-.4-1.7-.5-1-.1-1.3-.2-1.4-.2-.1-.1-.2-.2-.2-.3 0-.1 0-.2.1-.3.1-.1.3-.2.8-.3.5-.1.9-.3 1.2-.4.3-.1.6-.3.8-.6.2-.3.3-.7.3-1.2s-.2-.9-.6-1.4h1.1v-.7H98c-.8 0-1.4.2-1.8.6m2.9 7.2c-.3.2-.8.3-1.3.3-1.2 0-1.8-.3-1.8-.9 0-.6.7-.9 1.9-.9 1.7 0 1.7.7 1.7.9 0 .2-.2.5-.5.6m-1.4-7c.4 0 .7.1 1 .4.3.3.4.6.4 1s-.1.7-.4 1c-.3.3-.6.4-1 .4s-.7-.1-1-.4c-.3-.3-.4-.6-.4-1s.1-.7.4-1c.3-.3.6-.4 1-.4M105.2 110.3c-.5-.5-1-.7-1.4-.7-.6 0-1.3.4-1.9 1.4v-1.3h-.8v5.9h.8V112c.6-1 1.2-1.5 1.7-1.5.3 0 .6.2 1.1.6l.1.1.4-.9zM108.1 109.6c-.9 0-1.6.3-2.2.9-.6.6-.9 1.3-.9 2.2 0 .9.3 1.6.9 2.2.6.6 1.3.9 2.2.9.9 0 1.6-.3 2.2-.9.6-.6.9-1.3.9-2.2 0-.9-.3-1.6-.9-2.2-.6-.6-1.4-.9-2.2-.9m0 5.4c-.6 0-1.1-.2-1.5-.6-.4-.4-.6-1-.6-1.6 0-.6.2-1.2.6-1.6.4-.4.9-.6 1.5-.6s1.1.2 1.5.6c.4.4.6 1 .6 1.6 0 .6-.2 1.2-.6 1.6-.4.3-.9.6-1.5.6M116.2 113.8c-.3.4-.5.7-.8.9-.3.2-.6.3-.9.3-.4 0-.8-.1-1-.4-.3-.3-.4-.7-.4-1.2v-3.6h-.8v3.6c0 .8.2 1.4.6 1.8.4.4 1 .6 1.6.6.4 0 .8-.1 1.1-.3.2-.1.4-.3.7-.6v.7h.8v-5.9h-.8v4.1zM122.9 110.5c-.6-.6-1.3-.9-2.1-.9-.5 0-1.1.1-1.6.4v-.2h-.8v8.8h.8v-3.2c.5.2 1.1.4 1.6.4.8 0 1.5-.3 2.1-.9.6-.6.9-1.3.9-2.2 0-.9-.3-1.6-.9-2.2m-3.7.3c.5-.2.9-.4 1.4-.4.6 0 1.2.2 1.6.6.4.4.6 1 .6 1.6 0 .7-.2 1.2-.6 1.6-.4.4-.9.6-1.6.6-.5 0-1-.1-1.5-.4v-3.6zM42.1 77.6c-1.2 0-2.1.4-2.8 1.2-.7.8-1.1 1.8-1.1 3.1s.4 2.4 1.1 3.2c.7.8 1.6 1.2 2.8 1.2 1.1 0 2-.4 2.7-1.2.7-.8 1.1-1.8 1.1-3.1s-.4-2.4-1.1-3.2c-.7-.8-1.6-1.2-2.7-1.2" class="st1"/><path d="M27.2 104.5h28.2V45.7H27.2v58.8zm20-17.4c-1.2 1.4-2.7 2-4.6 2-1.6 0-3-.6-4.2-1.8v1.4h-3.1V65.3h3.1v11.5c1.3-1.3 2.7-1.9 4.3-1.9 1.8 0 3.3.7 4.6 2 1.2 1.3 1.8 3 1.8 5.1-.1 2-.7 3.7-1.9 5.1M95.3 104.5h28.2V45.7H95.3v58.8zm15.8-15.8H108V65.3h3.1v23.4zM75.2 77.6c-1.2 0-2.1.4-2.8 1.3-.6.8-.9 1.8-.9 3.1 0 1.2.3 2.2.9 3 .7.9 1.6 1.3 2.8 1.3 1.2 0 2.1-.4 2.8-1.3.6-.8 1-1.8 1-3 0-1.3-.4-2.4-1.1-3.1-.6-.9-1.6-1.3-2.7-1.3" class="st1"/><path d="M61.3 104.5h28.2V45.7H61.3v58.8zM82 88.4c0 .6 0 6.4-.1 6.9 0 .5-.1.9-.2 1.3-.2 1-.7 1.9-1.3 2.6-1.2 1.4-2.9 2.1-5.1 2.1-1.8 0-3.3-.5-4.5-1.5-1.2-1-1.9-2.4-2.1-4.2H72c.1.7.3 1.2.6 1.5.6.8 1.6 1.3 2.8 1.3 2.3 0 3.4-1.4 3.4-4.2v-7.1c-1.2 1.3-2.7 1.9-4.3 1.9-1.8 0-3.4-.7-4.5-2-1.2-1.4-1.8-3-1.8-5.1 0-2 .6-3.6 1.7-5 1.2-1.5 2.8-2.2 4.7-2.2 1.7 0 3.1.6 4.3 1.9v-1.5H82v13.3z" class="st1"/></svg>