<svg xmlns="http://www.w3.org/2000/svg" id="Layer_1" viewBox="0 0 288.7 288.7"><style>.st0{fill:#006AB6;} .st1{fill:#FFFFFF;}</style><path d="M288.7 144.4c0 79.7-64.6 144.4-144.4 144.4C64.6 288.7 0 224.1 0 144.4 0 64.6 64.6 0 144.4 0c79.7 0 144.3 64.6 144.3 144.4" class="st0"/><path d="M183.9 211c-.8.8-1.3 1.8-1.3 3 0 .8.3 1.6.8 2.3.4.6 1 1 1.7 1.3-1.2.4-1.8 1-1.8 1.8 0 .7.4 1.2 1.2 1.5-1.7.4-2.6 1.4-2.6 2.7 0 1 .5 1.7 1.4 2.3.9.6 2.1.8 3.7.8s2.8-.3 3.7-.9c.9-.6 1.4-1.5 1.4-2.5 0-.9-.3-1.6-.9-2.2-.6-.5-1.6-.9-3.3-.9-2-.1-2.5-.3-2.6-.4-.2-.1-.3-.3-.3-.6 0-.2.1-.4.3-.5.1-.1.5-.3 1.6-.6.9-.2 1.7-.5 2.2-.7.6-.3 1.1-.7 1.5-1.2.4-.6.6-1.3.6-2.3 0-.9-.4-1.8-1.2-2.7h2.1v-1.4h-4.6c-1.5.1-2.8.5-3.6 1.2m5.7 13.8c-.6.4-1.5.6-2.6.6-2.4 0-3.5-.6-3.5-1.8 0-1.2 1.3-1.8 3.7-1.8 3.2 0 3.2 1.3 3.2 1.7.1.6-.2 1-.8 1.3m-2.8-13.5c.8 0 1.4.3 1.9.8s.8 1.1.8 1.9c0 .7-.3 1.4-.8 1.9s-1.1.8-1.9.8c-.7 0-1.4-.3-1.9-.8s-.8-1.2-.8-1.9.2-1.3.8-1.9c.6-.5 1.2-.8 1.9-.8M201.3 211c-1-.9-1.9-1.3-2.6-1.3-1.2 0-2.4.9-3.6 2.6v-2.4h-1.6v11.4h1.6v-7c1.2-2 2.3-3 3.3-3 .5 0 1.2.4 2 1.2l.2.2.9-1.5-.2-.2zM206.7 209.7c-1.6 0-3 .6-4.1 1.7-1.1 1.1-1.7 2.5-1.7 4.2 0 1.7.6 3.1 1.7 4.2s2.5 1.7 4.1 1.7c1.6 0 3-.6 4.1-1.7 1.1-1.1 1.6-2.5 1.6-4.2 0-1.7-.5-3.1-1.6-4.2s-2.4-1.7-4.1-1.7m0 10.2c-1.2 0-2.1-.4-2.9-1.2-.8-.8-1.2-1.8-1.2-3.1 0-1.2.4-2.3 1.2-3.1.8-.8 1.8-1.2 2.9-1.2 1.1 0 2.1.4 2.9 1.2.8.8 1.2 1.9 1.2 3.1 0 1.2-.4 2.3-1.2 3.1-.7.8-1.7 1.2-2.9 1.2M222.2 217.7c-.5.8-1 1.4-1.5 1.7-.5.3-1.1.5-1.8.5-.8 0-1.5-.3-2-.8s-.8-1.3-.8-2.2V210h-1.6v7c0 1.4.4 2.6 1.2 3.4.8.8 1.8 1.2 3.1 1.2.9 0 1.6-.2 2.1-.5.4-.2.9-.6 1.3-1.1v1.4h1.6v-11.3h-1.6v7.6zM235.2 211.4c-1.1-1.1-2.4-1.7-4-1.7-1 0-2 .2-3 .7v-.5h-1.6v16.9h1.6v-6c1 .5 2 .7 3 .7 1.6 0 2.9-.6 4-1.7s1.6-2.6 1.6-4.2c-.1-1.7-.6-3.1-1.6-4.2m-7.1.6c.9-.5 1.8-.7 2.6-.7 1.2 0 2.3.4 3.1 1.2.8.8 1.2 1.9 1.2 3.1 0 1.3-.4 2.3-1.1 3.1-.8.8-1.8 1.2-3 1.2-.9 0-1.9-.3-2.8-.7V212zM80.5 148.5c-2.2 0-4 .8-5.4 2.3-1.4 1.5-2.1 3.5-2.1 5.9 0 2.5.7 4.5 2 6 1.4 1.5 3.1 2.3 5.3 2.3 2.1 0 3.8-.8 5.2-2.3 1.4-1.6 2.1-3.5 2.1-5.8 0-2.5-.7-4.5-2-6.1-1.3-1.5-3-2.3-5.1-2.3" class="st1"/><path d="M52 199.8h54V87.5H52v112.3zm38.3-33.2c-2.3 2.6-5.3 3.9-8.8 3.9-3 0-5.7-1.1-8-3.4v2.7h-6v-44.9h6v22c2.4-2.5 5.1-3.7 8.1-3.7 3.5 0 6.4 1.3 8.7 3.9 2.3 2.6 3.5 5.8 3.5 9.7 0 3.9-1.2 7.2-3.5 9.8M182.3 199.8h54V87.5h-54v112.3zm30.2-30.1h-6v-44.9h6v44.9zM143.9 148.5c-2.3 0-4.1.8-5.4 2.5-1.2 1.5-1.8 3.4-1.8 5.8 0 2.3.6 4.3 1.8 5.8 1.3 1.7 3.1 2.5 5.4 2.5 2.3 0 4.1-.8 5.4-2.5 1.2-1.5 1.8-3.4 1.8-5.8 0-2.5-.7-4.5-2-6s-3.1-2.3-5.2-2.3" class="st1"/><path d="M117.2 199.8h54V87.4h-54v112.4zm39.7-30.7c0 1.2 0 12.3-.1 13.2-.1.9-.2 1.8-.3 2.5-.4 1.9-1.3 3.6-2.5 5-2.4 2.7-5.6 4-9.7 4-3.4 0-6.3-.9-8.5-2.8-2.3-1.9-3.6-4.6-4-8h6c.2 1.3.6 2.3 1.1 2.9 1.2 1.6 3.1 2.4 5.4 2.4 4.4 0 6.6-2.7 6.6-8v-13.6c-2.4 2.4-5.1 3.6-8.2 3.6-3.5 0-6.4-1.3-8.7-3.8-2.3-2.6-3.4-5.8-3.4-9.7 0-3.8 1.1-7 3.2-9.6 2.3-2.8 5.3-4.2 9-4.2 3.3 0 6 1.2 8.1 3.7v-2.9h6v25.3z" class="st1"/></svg>